# xmcd CD database file
#
# Track frame offsets:
#	150
#	16248
#	37955
#	52152
#	73152
#	93507
#	112570
#	138122
#	155181
#	177517
#	194938
#	214995
#	236463
#	259178
#	283622
#	309603
#
# Disc length: 4334 seconds
#
# Revision: 1
# Processed by: cddbd v1.5.2PL0 Copyright (c) Steve Scherf et al.
# Submitted via: CDex 1.70beta2
#
DISCID=ef10ec10
DTITLE=Celia Cruz - Salsa Best of Cd 2
DYEAR=2001
DGENRE=Salsa
TTITLE0=Pachito Eche
TTITLE1=Ay Mi Cuba
TTITLE2=Rumberos De Ayer
TTITLE3=Ritmo En El Corazon
TTITLE4=El Chisme
TTITLE5=Oriza eh
TTITLE6=Toro Mata
TTITLE7=Cucala
TTITLE8=TresDias De Carnaval
TTITLE9=La Medicina Cubana
TTITLE10=No Me Cmabie Camino
TTITLE11=Tu Musica Popular
TTITLE12=Cucurucucu Paloma
TTITLE13=Canto A La Habana
TTITLE14=Por Si Acaso No Regreso
TTITLE15=Arrecotin Arrecotan
EXTD=YEAR: 2001
EXTT0=
EXTT1=
EXTT2=
EXTT3=
EXTT4=
EXTT5=
EXTT6=
EXTT7=
EXTT8=
EXTT9=
EXTT10=
EXTT11=
EXTT12=
EXTT13=
EXTT14=
EXTT15=
PLAYORDER=
